HIERARCHY
ROOT Hips
{
  OFFSET 47.0027 95.6244 19.8608
  CHANNELS 6 Xposition Yposition Zposition Zrotation Xrotation Yrotation
  JOINT spine
  {
    OFFSET 0 7.96568 0.458067
    CHANNELS 3 Zrotation Xrotation Yrotation
    JOINT spine1
    {
      OFFSET 0 10.2431 0
      CHANNELS 3 Zrotation Xrotation Yrotation
      JOINT spine2
      {
        OFFSET 0 9.81475 0
        CHANNELS 3 Zrotation Xrotation Yrotation
        JOINT Neck
        {
          OFFSET 0 25.1986 1.20138
          CHANNELS 3 Zrotation Xrotation Yrotation
          JOINT Head
          {
            OFFSET 0 7.61315 0
            CHANNELS 3 Zrotation Xrotation Yrotation
            End Site
            {
              OFFSET 0 18.4281 -6.07733
            }
          }
        }
        JOINT RightShoulder
        {
          OFFSET -4.1327 10.5992 -0.575451
          CHANNELS 3 Zrotation Xrotation Yrotation
          JOINT RightArm
          {
            OFFSET 0 13.9018 0
            CHANNELS 3 Zrotation Xrotation Yrotation
            JOINT RightArmRoll
            {
              OFFSET 0 7.01789 0
              CHANNELS 3 Zrotation Xrotation Yrotation
              JOINT RightForeArm
              {
                OFFSET 0 20.4406 0
                CHANNELS 3 Zrotation Xrotation Yrotation
                JOINT RightForeArmRoll
                {
                  OFFSET 0 7.87516 0
                  CHANNELS 3 Zrotation Xrotation Yrotation
                  JOINT RightHand
                  {
                    OFFSET 0 15.8037 0
                    CHANNELS 3 Zrotation Xrotation Yrotation
                    End Site
                    {
                      OFFSET 0 0 0
                    }
                  }
                }
              }
            }
          }
        }
        JOINT LeftShoulder
        {
          OFFSET 4.1327 10.5992 -0.575451
          CHANNELS 3 Zrotation Xrotation Yrotation
          JOINT LeftArm
          {
            OFFSET 0 13.9018 0
            CHANNELS 3 Zrotation Xrotation Yrotation
            JOINT LeftArmRoll
            {
              OFFSET 0 7.01789 0
              CHANNELS 3 Zrotation Xrotation Yrotation
              JOINT LeftForeArm
              {
                OFFSET 0 20.4406 0
                CHANNELS 3 Zrotation Xrotation Yrotation
                JOINT LeftForeArmRoll
                {
                  OFFSET 0 7.87516 0
                  CHANNELS 3 Zrotation Xrotation Yrotation
                  JOINT LeftHand
                  {
                    OFFSET 0 15.8037 0
                    CHANNELS 3 Zrotation Xrotation Yrotation
                    End Site
                    {
                      OFFSET 0 0 0
                    }
                  }
                }
              }
            }
          }
        }
      }
    }
  }
  JOINT RightUpLeg
  {
    OFFSET -7.06048 -1.2947 -1.0861
    CHANNELS 3 Zrotation Xrotation Yrotation
    JOINT RightUpLegRoll
    {
      OFFSET 0 18.5308 0
      CHANNELS 3 Zrotation Xrotation Yrotation
      JOINT RightLeg
      {
        OFFSET 0 -22.9476 0
        CHANNELS 3 Zrotation Xrotation Yrotation
        JOINT RightLegRoll
        {
          OFFSET 0 23.0226 0
          CHANNELS 3 Zrotation Xrotation Yrotation
          JOINT RightFoot
          {
            OFFSET 0 19.1625 0
            CHANNELS 3 Zrotation Xrotation Yrotation
            JOINT RightToeBase
            {
              OFFSET 0 16.0188 0
              CHANNELS 3 Zrotation Xrotation Yrotation
              End Site
              {
                OFFSET 0.00678978 7.75782 -0.894206
              }
            }
          }
        }
      }
    }
  }
  JOINT LeftUpLeg
  {
    OFFSET 7.06048 -1.2947 -1.0861
    CHANNELS 3 Zrotation Xrotation Yrotation
    JOINT LeftUpLegRoll
    {
      OFFSET 0 18.5309 0
      CHANNELS 3 Zrotation Xrotation Yrotation
      JOINT LeftLeg
      {
        OFFSET 0 22.9475 0
        CHANNELS 3 Zrotation Xrotation Yrotation
        JOINT LeftLegRoll
        {
          OFFSET 0 23.2355 0
          CHANNELS 3 Zrotation Xrotation Yrotation
          JOINT LeftFoot
          {
            OFFSET 0 18.9496 0
            CHANNELS 3 Zrotation Xrotation Yrotation
            JOINT LeftToeBase
            {
              OFFSET 0 16.0188 0
              CHANNELS 3 Zrotation Xrotation Yrotation
              End Site
              {
                OFFSET -0.0304289 7.75782 -0.894206
              }
            }
          }
        }
      }
    }
  }
}
MOTION
Frames: 6
Frame Time: 0.00208333
44.3555 84.0036 21.0157 3.15343 3.53318 0.077131 -0.819972 -2.36085 -0.0605751 -1.63938 -0.719159 -0.0488937 -1.63902 0.925517 -0.0214698 -3.68952 22.3252 0.960197 3.22942 -11.6521 0.340522 11.9995 -12.1248 -9.06544 10.4421 37.8131 96.6829 -1.27222e-014 6.5102e-015 5.1684e-015 -21.9179 60.9256 27.5277 -5.84595e-006 -3.7131e-007 -3.00642 8.02993 -4.95137 0.697647 -21.2891 -13.2128 9.8957 1.82095 39.1723 -96.6634 7.00373e-006 1.70958e-006 1.50017e-006 23.2479 58.2489 -26.1212 1.65137e-005 -2.35759e-006 3.00175 -8.02981 -4.95141 -0.697633 143.866 22.0304 20.2103 180 7.01644e-015 179.496 -179.963 43.5953 178.074 -1.9828e-006 2.18582e-006 0.686716 -22.1123 77.9954 31.1684 8.14957 25.4507 -3.22974 -159.713 26.0526 -8.22848 -1.07169e-005 -4.64206e-006 -1.20495 7.63117 -48.325 4.00597 3.62779e-006 -6.39559e-006 -3.54119 47.1346 82.1049 -52.0741 -8.17084 25.879 2.77858 
44.3672 84.1806 21.0766 3.294 3.57869 0.0336867 -0.839015 -2.38624 -0.0563106 -1.67724 -0.770015 -0.038972 -1.67698 0.874644 -0.0109136 -3.86869 22.3288 1.02453 3.42152 -11.4694 0.377196 12.2044 -12.0624 -8.96373 10.6063 37.9366 96.5625 -6.36111e-015 -9.0944e-015 6.36111e-015 -21.9325 61.0519 27.5474 -5.84595e-006 -3.7131e-007 -3.00642 8.02993 -4.95137 0.697647 -21.705 -13.1928 9.85531 1.64511 39.2864 -96.2445 7.00373e-006 1.70958e-006 1.50017e-006 23.0206 58.1142 -25.7983 1.65137e-005 -2.35759e-006 3.00175 -8.02981 -4.95141 -0.697633 143.951 21.858 20.0998 180 7.01638e-015 179.443 -179.987 42.9862 178.157 -1.9828e-006 2.18581e-006 0.756441 -22.3019 77.6753 30.774 8.14937 25.4472 -3.23519 -160.007 25.797 -8.11082 -1.07169e-005 -4.64206e-006 -1.23062 7.25694 -47.7597 3.72576 3.62779e-006 -6.39562e-006 -3.53782 46.4881 81.8768 -50.9757 -8.17185 25.9024 2.75372 
44.4132 84.5481 20.9885 3.41876 3.6154 -0.0059705 -0.854858 -2.41012 -0.0519177 -1.7087 -0.817844 -0.0290553 -1.70854 0.826802 -0.000469547 -4.04501 22.3558 1.08808 3.61009 -11.3057 0.412545 12.4131 -11.9917 -8.85125 10.8091 38.0513 96.3781 3.18055e-015 -1.09829e-014 4.37326e-015 -21.9269 61.1533 27.5348 -5.84595e-006 -3.7131e-007 -3.00642 8.02993 -4.95137 0.697647 -22.147 -13.1342 9.77332 1.4237 39.3697 -95.7247 7.00373e-006 1.70958e-006 1.50017e-006 22.7601 57.973 -25.441 1.65137e-005 -2.35759e-006 3.00175 -8.02981 -4.95141 -0.697633 144.065 21.6626 19.9692 180 7.01631e-015 179.391 179.986 42.3463 178.236 -1.9828e-006 2.18579e-006 0.817539 -22.4313 77.3393 30.3373 8.14914 25.443 -3.24133 -160.282 25.5249 -7.99899 -1.07169e-005 -4.64206e-006 -1.25459 6.89819 -47.164 3.46449 3.62779e-006 -6.39569e-006 -3.52074 45.6262 81.6194 -49.6854 -8.17268 25.9217 2.7332 
44.5052 84.7544 21.0116 3.52387 3.64128 -0.0408795 -0.866769 -2.43205 -0.0473828 -1.7323 -0.86175 -0.0191761 -1.73224 0.782886 0.00980536 -4.21669 22.4107 1.15034 3.7927 -11.1671 0.446087 12.6241 -11.9112 -8.7262 11.0571 38.154 96.1177 -1.90833e-014 -3.37934e-015 4.96962e-015 -21.8967 61.2242 27.4833 -5.84595e-006 -3.7131e-007 -3.00642 8.02993 -4.95137 0.697647 -22.6157 -13.0307 9.64312 1.1506 39.4136 -95.0928 7.00373e-006 1.70958e-006 1.50017e-006 22.464 57.8266 -25.0477 1.65137e-005 -2.35759e-006 3.00175 -8.02981 -4.95141 -0.697633 144.212 21.4411 19.8159 180 7.01624e-015 179.339 179.954 41.6749 178.311 -1.9828e-006 2.18578e-006 0.868163 -22.4916 76.9872 29.8564 8.14886 25.438 -3.24824 -160.531 25.235 -7.89524 -1.07169e-005 -4.64205e-006 -1.2763 6.55789 -46.5372 3.22569 3.62779e-006 -6.3958e-006 -3.48752 44.5406 81.3284 -48.2028 -8.17329 25.9361 2.71789 
44.4926 85.1644 21.0045 3.60547 3.65428 -0.070079 -0.874016 -2.45156 -0.0426925 -1.74659 -0.900838 -0.00936698 -1.74662 0.743791 0.0198541 -4.38194 22.4979 1.21078 3.96692 -11.0597 0.477344 12.836 -11.8194 -8.58676 11.3564 38.241 95.7696 -3.18055e-015 1.0138e-014 -9.93923e-016 -21.8376 61.2592 27.3864 -5.84595e-006 -3.7131e-007 -3.00642 8.02993 -4.95137 0.697647 -23.1116 -12.8758 9.45816 0.820522 39.4083 -94.3394 7.00373e-006 1.70958e-006 1.50017e-006 22.1298 57.6761 -24.617 1.65137e-005 -2.35759e-006 3.00175 -8.02981 -4.95141 -0.697633 144.397 21.1904 19.6372 180 7.01617e-015 179.29 179.916 40.9713 178.38 -1.9828e-006 2.18576e-006 0.906467 -22.4748 76.6187 29.3301 8.14854 25.4322 -3.25597 -160.751 24.9257 -7.80184 -1.07169e-005 -4.64205e-006 -1.29521 6.23872 -45.8788 3.01269 3.6278e-006 -6.39596e-006 -3.43574 43.2295 80.9987 -46.5339 -8.17368 25.9448 2.70867 
44.5978 85.3987 21.0043 3.65973 3.65236 -0.0926076 -0.875867 -2.46822 -0.0378335 -1.75009 -0.934216 0.00033944 -1.75023 0.710411 0.0296198 -4.539 22.622 1.26889 4.13037 -10.9893 0.505837 13.0474 -11.7148 -8.43114 11.7131 38.3079 95.3224 3.18055e-015 5.36719e-015 7.95139e-016 -21.746 61.2525 27.238 -5.84595e-006 -3.7131e-007 -3.00642 8.02993 -4.95137 0.697647 -23.6344 -12.6629 9.21206 0.429518 39.3425 -93.4568 7.00373e-006 1.70958e-006 1.50017e-006 21.755 57.5229 -24.1473 1.65137e-005 -2.35759e-006 3.00175 -8.02981 -4.95141 -0.697633 144.624 20.9071 19.4305 180 7.0161e-015 179.242 179.872 40.2347 178.444 -1.9828e-006 2.18575e-006 0.930603 -22.3729 76.2334 28.7575 8.14816 25.4254 -3.26458 -160.934 24.5957 -7.72101 -1.07169e-005 -4.64205e-006 -1.31079 5.94304 -45.1882 2.82856 3.6278e-006 -6.39616e-006 -3.36295 41.6979 80.6243 -44.6916 -8.1738 25.947 2.70642 
